<?xml version="1.0" encoding="UTF-8" standalone="no"?>
<!-- Created with Inkscape (http://www.inkscape.org/) -->

<svg
   xmlns:dc="http://purl.org/dc/elements/1.1/"
   xmlns:cc="http://creativecommons.org/ns#"
   xmlns:rdf="http://www.w3.org/1999/02/22-rdf-syntax-ns#"
   xmlns:svg="http://www.w3.org/2000/svg"
   xmlns="http://www.w3.org/2000/svg"
   xmlns:xlink="http://www.w3.org/1999/xlink"
   xmlns:sodipodi="http://sodipodi.sourceforge.net/DTD/sodipodi-0.dtd"
   xmlns:inkscape="http://www.inkscape.org/namespaces/inkscape"
   width="330.09955"
   height="76"
   id="svg1336"
   sodipodi:version="0.32"
   inkscape:version="0.48.5 r10040"
   version="1.0"
   sodipodi:docname="title-small.svg"
   inkscape:export-filename="/home/bryan/Projects/wxwebsite/downloads/logos/title-small.png"
   inkscape:export-xdpi="90"
   inkscape:export-ydpi="90">
  <defs
     id="defs1338">
    <linearGradient
       id="linearGradient8721">
      <stop
         id="stop12145"
         offset="0"
         style="stop-color:#ff0000;stop-opacity:1;" />
      <stop
         style="stop-color:#ffe0e0;stop-opacity:1;"
         offset="1"
         id="stop8725" />
    </linearGradient>
    <linearGradient
       id="linearGradient4073">
      <stop
         id="stop4075"
         offset="0"
         style="stop-color:#ffffff;stop-opacity:1;" />
      <stop
         id="stop4077"
         offset="1"
         style="stop-color:#ffffff;stop-opacity:0;" />
    </linearGradient>
    <linearGradient
       id="linearGradient6848">
      <stop
         id="stop6850"
         offset="0"
         style="stop-color:#0000ff;stop-opacity:1;" />
      <stop
         id="stop6852"
         offset="1"
         style="stop-color:#e0e0ff;stop-opacity:1;" />
    </linearGradient>
    <linearGradient
       id="linearGradient6854">
      <stop
         id="stop6856"
         offset="0"
         style="stop-color:#ffffe0;stop-opacity:1;" />
      <stop
         id="stop6858"
         offset="1"
         style="stop-color:#ffff00;stop-opacity:1;" />
    </linearGradient>
    <linearGradient
       inkscape:collect="always"
       xlink:href="#linearGradient8721"
       id="linearGradient1686"
       gradientUnits="userSpaceOnUse"
       gradientTransform="matrix(1.000031,0,0,1.000031,-45.00832,-319.1057)"
       x1="221.01576"
       y1="674.0849"
       x2="119.92342"
       y2="474.09103" />
    <linearGradient
       inkscape:collect="always"
       xlink:href="#linearGradient4073"
       id="linearGradient1688"
       gradientUnits="userSpaceOnUse"
       gradientTransform="matrix(0.545556,0,0,0.350255,-38.51666,72.6073)"
       x1="139.43112"
       y1="520.74255"
       x2="222.73912"
       y2="520.74255" />
    <linearGradient
       inkscape:collect="always"
       xlink:href="#linearGradient6848"
       id="linearGradient1690"
       gradientUnits="userSpaceOnUse"
       gradientTransform="matrix(1.334164,0,0,1.334164,-90.28301,-537.514)"
       x1="296.20334"
       y1="571.52942"
       x2="220.84492"
       y2="421.62283" />
    <linearGradient
       inkscape:collect="always"
       xlink:href="#linearGradient4073"
       id="linearGradient1692"
       gradientUnits="userSpaceOnUse"
       gradientTransform="matrix(0.545558,0,0,0.350255,91.4834,-57.3926)"
       x1="139.62971"
       y1="520.74225"
       x2="222.73819"
       y2="520.74225" />
    <linearGradient
       inkscape:collect="always"
       xlink:href="#linearGradient6854"
       id="linearGradient1694"
       gradientUnits="userSpaceOnUse"
       gradientTransform="matrix(1.334164,0,0,1.334164,54.71699,-442.514)"
       x1="221.02206"
       y1="421.6228"
       x2="296.72556"
       y2="571.52942" />
    <linearGradient
       inkscape:collect="always"
       xlink:href="#linearGradient4073"
       id="linearGradient1696"
       gradientUnits="userSpaceOnUse"
       gradientTransform="matrix(0.545558,0,0,0.350255,236.4833,37.6074)"
       x1="139.43103"
       y1="520.74225"
       x2="222.73837"
       y2="520.74225" />
    <linearGradient
       inkscape:collect="always"
       xlink:href="#linearGradient8721"
       id="linearGradient3042"
       gradientUnits="userSpaceOnUse"
       gradientTransform="matrix(1.000031,0,0,1.000031,-45.00832,-319.1057)"
       x1="221.01576"
       y1="674.0849"
       x2="119.92342"
       y2="474.09103" />
    <linearGradient
       inkscape:collect="always"
       xlink:href="#linearGradient4073"
       id="linearGradient3044"
       gradientUnits="userSpaceOnUse"
       gradientTransform="matrix(0.545556,0,0,0.350255,-38.51666,72.6073)"
       x1="139.43112"
       y1="520.74255"
       x2="222.73912"
       y2="520.74255" />
    <linearGradient
       inkscape:collect="always"
       xlink:href="#linearGradient6848"
       id="linearGradient3046"
       gradientUnits="userSpaceOnUse"
       gradientTransform="matrix(1.334164,0,0,1.334164,-90.28301,-537.514)"
       x1="296.20334"
       y1="571.52942"
       x2="220.84492"
       y2="421.62283" />
    <linearGradient
       inkscape:collect="always"
       xlink:href="#linearGradient4073"
       id="linearGradient3048"
       gradientUnits="userSpaceOnUse"
       gradientTransform="matrix(0.545558,0,0,0.350255,91.4834,-57.3926)"
       x1="139.62971"
       y1="520.74225"
       x2="222.73819"
       y2="520.74225" />
    <linearGradient
       inkscape:collect="always"
       xlink:href="#linearGradient6854"
       id="linearGradient3050"
       gradientUnits="userSpaceOnUse"
       gradientTransform="matrix(1.334164,0,0,1.334164,54.71699,-442.514)"
       x1="221.02206"
       y1="421.6228"
       x2="296.72556"
       y2="571.52942" />
    <linearGradient
       inkscape:collect="always"
       xlink:href="#linearGradient4073"
       id="linearGradient3052"
       gradientUnits="userSpaceOnUse"
       gradientTransform="matrix(0.545558,0,0,0.350255,236.4833,37.6074)"
       x1="139.43103"
       y1="520.74225"
       x2="222.73837"
       y2="520.74225" />
  </defs>
  <sodipodi:namedview
     inkscape:document-units="px"
     pagecolor="#ffffff"
     bordercolor="#666666"
     borderopacity="1.0"
     inkscape:pageopacity="0.0"
     inkscape:pageshadow="2"
     inkscape:zoom="2"
     inkscape:cx="176.65684"
     inkscape:cy="17.330899"
     inkscape:current-layer="layer1"
     id="namedview1340"
     showguides="true"
     inkscape:guide-bbox="true"
     inkscape:window-width="1920"
     inkscape:window-height="1014"
     inkscape:window-x="0"
     inkscape:window-y="27"
     showgrid="false"
     units="px"
     guidetolerance="20"
     objecttolerance="20"
     inkscape:snap-global="true"
     inkscape:snap-bbox="false"
     inkscape:snap-page="true"
     inkscape:bbox-paths="true"
     gridtolerance="10"
     fit-margin-top="18"
     fit-margin-left="18"
     fit-margin-right="18"
     fit-margin-bottom="18"
     inkscape:window-maximized="1" />
  <metadata
     id="metadata1342">
    <rdf:RDF>
      <cc:Work
         rdf:about="">
        <dc:format>image/svg+xml</dc:format>
        <dc:type
           rdf:resource="http://purl.org/dc/dcmitype/StillImage" />
        <dc:title></dc:title>
        <cc:license
           rdf:resource="https://creativecommons.org/licenses/sa/1.0/" />
      </cc:Work>
    </rdf:RDF>
  </metadata>
  <g
     inkscape:label="Layer 1"
     inkscape:groupmode="layer"
     id="layer1"
     transform="translate(3.6000065,-270.50662)">
    <g
       id="g1457"
       transform="matrix(0.1030303,0,0,0.1030303,11.824236,288.93086)">
      <g
         style="display:inline"
         inkscape:label="Red"
         id="layer2">
        <path
           id="rect1393"
           d="m 69.33962,154.99997 111.32077,0 c 24.56415,0 44.33961,19.77547 44.33961,44.33962 l 0,111.32078 c 0,24.56414 -19.77546,44.33961 -44.33961,44.33961 l -111.32077,0 C 44.775476,354.99998 25,335.22451 25,310.66037 l 0,-111.32078 c 0,-24.56415 19.775476,-44.33962 44.33962,-44.33962 z"
           style="fill:url(#linearGradient3042);fill-opacity:1;fill-rule:nonzero;stroke:none;stroke-width:38;marker-start:none"
           inkscape:connector-curvature="0" />
        <path
           id="path2231"
           d="m 182.05654,230.00562 c -48.53089,0.52516 -61.79585,56.69111 -104.89889,57.24964 -18.6358,0.23541 -34.530378,-12.5544 -52.157599,-27.69878 l 0,51.65226 c 0,24.24869 19.796853,43.79127 44.361069,43.79124 l 111.31955,0 c 24.56422,0 44.31938,-19.54253 44.31938,-43.79124 l 0,-70.25531 c -12.03236,-6.60668 -25.96585,-11.13587 -42.94351,-10.94781 z"
           style="opacity:0.25;fill:#ff0000;fill-opacity:1;fill-rule:evenodd;stroke:none"
           inkscape:connector-curvature="0" />
        <rect
           rx="17.843672"
           ry="17.843672"
           y="179.99998"
           x="50"
           height="150"
           width="33"
           id="rect3182"
           style="fill:url(#linearGradient3044);fill-opacity:1;fill-rule:nonzero;stroke:none" />
        <path
           sodipodi:nodetypes="ccccccccc"
           id="path37247"
           d="m 69.46811,161.34322 111.19211,0 c 21.12816,0 37.9969,16.87873 37.9969,38.00595 l 0,111.32031 c 0,21.13499 -16.86549,37.98752 -37.9969,37.98752 l -111.32032,0 c -21.131502,0 -37.9969,-16.86042 -37.9969,-37.98752 l 0,-111.35844 c 0,-21.13196 16.99051,-37.96782 38.12511,-37.96782 z"
           style="fill:none;stroke:#800000;stroke-width:12.68599987;stroke-linecap:butt;stroke-linejoin:round;stroke-miterlimit:20;stroke-opacity:0.50196078;stroke-dasharray:none;stroke-dashoffset:0;marker-start:none"
           inkscape:connector-curvature="0" />
      </g>
      <g
         style="display:inline"
         inkscape:label="Blue"
         id="layer3">
        <path
           id="path5922"
           d="m 199.33962,24.99998 111.32078,0 c 24.56415,0 44.3396,19.77547 44.3396,44.3396 l 0,111.32079 c 0,24.56414 -19.77545,44.33961 -44.3396,44.33961 l -111.32078,0 C 174.77548,224.99998 155,205.22451 155,180.66037 l 0,-111.32079 c 0,-24.56413 19.77548,-44.3396 44.33962,-44.3396 z"
           style="fill:url(#linearGradient3046);fill-opacity:1;fill-rule:nonzero;stroke:none;stroke-width:38.28099823;marker-start:none"
           inkscape:connector-curvature="0" />
        <path
           id="path5924"
           d="M 312.05649,100.00562 C 263.5256,100.5308 250.26065,156.69674 207.1576,157.25527 188.52179,157.49067 172.62722,144.70086 155,129.55648 l 0,51.65227 c 0,24.24868 19.79685,43.79126 44.36106,43.79123 l 111.31957,0 c 24.5642,0 44.31937,-19.54253 44.31937,-43.79123 l 0,-70.25531 c -12.03236,-6.60669 -25.96585,-11.13588 -42.94351,-10.94782 z"
           style="opacity:0.25;fill:#0000ff;fill-opacity:1;fill-rule:evenodd;stroke:none"
           inkscape:connector-curvature="0" />
        <rect
           rx="17.843672"
           ry="17.843672"
           y="49.999981"
           x="180"
           height="150"
           width="33"
           id="rect5926"
           style="fill:url(#linearGradient3048);fill-opacity:1;fill-rule:nonzero;stroke:none" />
        <path
           style="fill:none;stroke:#000080;stroke-width:12.68599987;stroke-linecap:butt;stroke-linejoin:round;stroke-miterlimit:20;stroke-opacity:0.50196078;stroke-dasharray:none;stroke-dashoffset:0;marker-start:none;display:inline"
           d="m 199.46811,31.34322 111.19211,0 c 21.12816,0 37.9969,16.87873 37.9969,38.00595 l 0,111.32031 c 0,21.13499 -16.86549,37.98752 -37.9969,37.98752 l -111.32032,0 c -21.1315,0 -37.9969,-16.86042 -37.9969,-37.98752 l 0,-111.35844 c 0,-21.13196 16.99051,-37.96782 38.12511,-37.96782 z"
           id="path41636"
           sodipodi:nodetypes="ccccccccc"
           inkscape:connector-curvature="0" />
      </g>
      <g
         inkscape:label="Yellow"
         id="layer4">
        <path
           id="path5936"
           d="m 344.33962,119.99997 111.32077,0 c 24.56415,0 44.33961,19.77547 44.33961,44.33962 l 0,111.32078 c 0,24.56414 -19.77546,44.33961 -44.33961,44.33961 l -111.32077,0 C 319.77547,319.99998 300,300.22451 300,275.66037 l 0,-111.32078 c 0,-24.56415 19.77547,-44.33962 44.33962,-44.33962 z"
           style="fill:url(#linearGradient3050);fill-opacity:1;fill-rule:nonzero;stroke:none;stroke-width:38.28144073;marker-start:none;display:inline"
           inkscape:connector-curvature="0" />
        <path
           id="path5938"
           d="M 457.05649,195.00562 C 408.5256,195.53079 395.26065,251.69673 352.1576,252.25526 333.52179,252.49067 317.62722,239.70086 300,224.55647 l 0,51.65228 c 0,24.24868 19.79685,43.79126 44.36106,43.79123 l 111.31957,0 C 480.24484,319.99998 500,300.45745 500,276.20875 l 0,-70.25532 c -12.03236,-6.60669 -25.96584,-11.13587 -42.94351,-10.94781 z"
           style="opacity:0.25;fill:#c0c000;fill-opacity:1;fill-rule:evenodd;stroke:none;display:inline"
           inkscape:connector-curvature="0" />
        <rect
           rx="17.843672"
           ry="17.843672"
           y="144.99998"
           x="325"
           height="150"
           width="33"
           id="rect5940"
           style="fill:url(#linearGradient3052);fill-opacity:1;fill-rule:nonzero;stroke:none;display:inline" />
        <path
           sodipodi:nodetypes="ccccccccc"
           id="path42512"
           d="m 344.46811,126.34322 111.19211,0 c 21.12816,0 37.9969,16.87873 37.9969,38.00595 l 0,111.32031 c 0,21.13499 -16.86549,37.98752 -37.9969,37.98752 l -111.32032,0 c -21.1315,0 -37.9969,-16.86042 -37.9969,-37.98752 l 0,-111.35844 c 0,-21.13196 16.99051,-37.96782 38.12511,-37.96782 z"
           style="fill:none;stroke:#808000;stroke-width:12.68599987;stroke-linecap:butt;stroke-linejoin:round;stroke-miterlimit:20;stroke-opacity:0.50196078;stroke-dasharray:none;stroke-dashoffset:0;marker-start:none;display:inline"
           inkscape:connector-curvature="0" />
      </g>
    </g>
    <g
       style="font-size:3.08242559px;font-style:normal;font-variant:normal;font-weight:normal;font-stretch:normal;text-align:start;line-height:100%;writing-mode:lr-tb;text-anchor:start;fill:#333333;fill-opacity:1;stroke:none;font-family:Bitstream Vera Sans"
       id="text1576"
       transform="matrix(0.90650654,0,0,0.90650654,-34.218106,40.571069)">
      <path
         inkscape:connector-curvature="0"
         d="m 161.22384,300.21913 c -2.08769,2.87844 -4.14371,5.0768 -6.16807,6.59509 -1.99279,1.5183 -4.033,2.27744 -6.12063,2.27744 -2.05604,0 -3.44781,-0.2056 -4.17531,-0.6168 l 0,-10.43828 c -1.80299,4.80794 -4.31766,8.14502 -7.54402,10.01126 -1.17037,0.69588 -2.30909,1.04382 -3.41617,1.04382 -2.11929,0 -3.63758,-0.2056 -4.55488,-0.6168 -0.22142,-7.24353 -0.42702,-11.86167 -0.61681,-13.85444 -0.18979,-2.02438 -0.36376,-3.65338 -0.52191,-4.88701 -0.31631,-2.46721 -1.0122,-4.20692 -2.08766,-5.21914 1.36014,-1.01217 2.98914,-1.51827 4.88702,-1.51829 3.6692,2e-5 5.75685,2.27746 6.26296,6.83232 0.12651,1.07548 0.18978,2.18257 0.18979,3.32127 -1e-5,1.7081 -0.1898,5.53546 -0.56936,11.4821 0.75913,-0.34793 1.53409,-1.13871 2.32489,-2.37233 0.82239,-1.26524 1.56572,-2.7519 2.22999,-4.45999 1.48665,-3.95388 2.22998,-7.6389 2.23,-11.05508 -2e-5,-0.53771 -0.0791,-1.09126 -0.23724,-1.66064 -0.12654,-0.56934 -0.26888,-0.93309 -0.42702,-1.09127 1.10707,-0.66423 2.49884,-0.99636 4.17531,-0.99638 1.70806,2e-5 2.95749,0.5852 3.74829,1.75552 0.82239,1.13875 1.3443,2.76775 1.56574,4.88701 0.25303,2.68867 0.37955,4.83958 0.37958,6.45276 -3e-5,2.24582 -0.11074,5.02935 -0.33213,8.35062 1.58153,-1.13872 3.02074,-3.57431 4.31765,-7.3068 1.29684,-3.73246 1.94528,-6.9272 1.94532,-9.58423 -4e-5,-1.17033 -0.0949,-2.10345 -0.28468,-2.79936 1.04379,-1.17032 2.46719,-1.7555 4.2702,-1.75552 1.10705,2e-5 2.05598,0.30052 2.8468,0.90148 0.82237,0.60102 1.23358,1.47087 1.23362,2.60957 -4e-5,1.10711 -0.17402,2.26165 -0.52192,3.46361 -0.31635,1.202 -0.74337,2.4198 -1.28106,3.6534 -1.04386,2.46724 -2.29329,4.6656 -3.74829,6.59509"
         style="font-size:47.44670868px;line-height:100%;fill:#333333;font-family:Sansita One;-inkscape-font-specification:Sansita One"
         id="path3041" />
      <path
         inkscape:connector-curvature="0"
         d="m 174.39623,308.28507 c -1.0122,0.53773 -2.21418,0.80659 -3.60595,0.80659 -1.39177,0 -2.46723,-0.34794 -3.22637,-1.04382 -0.75915,-0.72752 -1.13872,-1.77134 -1.13872,-3.13149 0,-1.39176 0.47446,-2.7519 1.4234,-4.08041 0.98056,-1.36013 2.18254,-2.41977 3.60595,-3.17893 1.45503,-0.75914 2.68864,-1.36013 3.70084,-1.80298 l -2.98914,-6.87977 c -0.53773,-1.17033 -1.3127,-1.75551 -2.32489,-1.75553 l -0.37957,0.0475 -0.14234,0 c 0.18978,-1.10707 0.93311,-2.08763 2.22999,-2.9417 1.29687,-0.88564 2.68864,-1.32848 4.17531,-1.3285 2.40396,2e-5 4.15948,1.202 5.26659,3.60594 l 0.37957,0.75915 2.04021,5.02935 c 0.85402,-0.37955 1.45501,-0.91728 1.80297,-1.61318 0.37956,-0.7275 0.56935,-1.78714 0.56936,-3.17893 -1e-5,-1.42338 -0.37959,-2.57792 -1.13872,-3.46361 1.20197,-0.75913 2.59374,-1.1387 4.17531,-1.13872 2.84678,2e-5 4.27018,1.37597 4.27021,4.12786 -3e-5,3.00497 -1.88208,5.37731 -5.64616,7.11701 l -2.8468,1.3285 2.56212,6.5951 c 0.50608,1.32851 1.21778,2.27744 2.1351,2.8468 0.37955,0.25305 0.79076,0.39539 1.23362,0.42702 -0.94896,1.54993 -2.45144,2.67283 -4.50744,3.36871 -0.63264,0.18979 -1.37597,0.28468 -2.23,0.28468 -0.85405,0 -1.77136,-0.30049 -2.75191,-0.90148 -0.98057,-0.56936 -1.64483,-1.31269 -1.99276,-2.23 l -2.60957,-6.78488 c -1.77135,0.79079 -2.65702,2.62539 -2.65701,5.50382 -1e-5,1.32851 0.20559,2.53049 0.6168,3.60595"
         style="font-size:47.44670868px;line-height:100%;fill:#333333;font-family:Sansita One;-inkscape-font-specification:Sansita One"
         id="path3043" />
      <path
         inkscape:connector-curvature="0"
         d="m 195.12674,278.72577 c 0.44284,-0.88564 1.13872,-1.56571 2.08766,-2.04021 0.98056,-0.50606 2.13509,-0.75911 3.46361,-0.75914 2.08764,3e-5 3.74828,0.75917 4.9819,2.27744 1.26523,1.48669 1.89785,3.87484 1.89787,7.16445 l 0,16.93848 10.8653,-25.43144 5.59871,0 1.28106,24.00803 -0.14234,1.37596 11.29231,-25.38399 6.5002,0 -15.18294,31.26738 -10.10615,0 -0.94894,-14.4238 -6.26296,14.4238 -11.43466,0 -1.4234,-22.77442 c -0.0949,-1.70806 -0.37958,-3.11564 -0.85404,-4.22276 -0.44284,-1.13869 -0.98057,-1.94528 -1.61319,-2.41978"
         style="font-size:47.44670868px;line-height:100%;fill:#333333;font-family:Sansita One;-inkscape-font-specification:Sansita One"
         id="path3045" />
      <path
         inkscape:connector-curvature="0"
         d="m 252.31114,305.53316 c -0.98057,2.37234 -3.03659,3.5585 -6.16807,3.5585 -1.61319,0 -2.92588,-0.55354 -3.93807,-1.66063 -0.85405,-0.98056 -1.28107,-1.96113 -1.28107,-2.9417 0,-2.56211 0.58518,-6.34203 1.75553,-11.33976 l 1.75553,-9.20466 9.63168,-0.94893 -2.89425,14.99316 c -0.53774,2.34071 -0.8066,3.92226 -0.80659,4.74467 -10e-6,1.80297 0.64843,2.73609 1.94531,2.79935 m -7.02211,-28.18334 c 0,-1.23359 0.50609,-2.18252 1.5183,-2.84681 1.04382,-0.66422 2.30906,-0.99634 3.79573,-0.99638 1.48665,4e-5 2.67282,0.33216 3.55851,0.99638 0.91728,0.66429 1.37593,1.61322 1.37595,2.84681 -2e-5,1.23364 -0.50611,2.16676 -1.51829,2.79935 -0.98058,0.63265 -2.2142,0.94896 -3.70085,0.94894 -1.48667,2e-5 -2.70447,-0.31629 -3.65339,-0.94894 -0.91731,-0.63259 -1.37596,-1.56571 -1.37596,-2.79935"
         style="font-size:47.44670868px;line-height:100%;fill:#333333;font-family:Sansita One;-inkscape-font-specification:Sansita One"
         id="path3047" />
      <path
         inkscape:connector-curvature="0"
         d="m 271.25277,282.99598 c 1.1387,2e-5 2.15089,0.12654 3.03658,0.37957 0.0316,-0.1265 0.0791,-0.36373 0.14234,-0.7117 l 0.23724,-1.47085 c 0.1265,-0.6326 0.28466,-1.47082 0.47447,-2.51468 l 0.75914,-3.74829 9.4419,-0.94893 -5.26659,27.51909 c -0.0317,0.18979 -0.0475,0.44284 -0.0474,0.75915 l 0,0.75915 c -3e-5,0.69589 0.17394,1.31269 0.52191,1.85042 0.34792,0.5061 0.80657,0.75915 1.37595,0.75915 -0.63264,1.48666 -1.9137,2.5463 -3.84318,3.17892 -0.66427,0.18979 -1.47087,0.28468 -2.41978,0.28468 -0.91732,0 -1.80299,-0.25304 -2.65702,-0.75914 -0.85405,-0.47447 -1.4076,-1.12291 -1.66063,-1.94532 -0.50612,0.82241 -1.26526,1.47085 -2.27744,1.94532 -1.01221,0.5061 -2.26164,0.75914 -3.74829,0.75914 -1.45504,0 -2.79937,-0.18978 -4.03297,-0.56936 -1.20199,-0.37957 -2.18256,-0.98056 -2.9417,-1.80297 -1.39177,-1.61319 -2.08766,-4.25438 -2.08765,-7.9236 -1e-5,-4.74466 1.39176,-8.55621 4.17531,-11.43466 2.78353,-2.91004 6.38947,-4.36507 10.81785,-4.36509 m -0.33213,2.8468 c -1.17037,2e-5 -2.07185,0.63264 -2.70446,1.89787 -0.63264,1.26526 -1.28108,3.46362 -1.94532,6.59509 -0.63263,3.13149 -0.94894,6.10482 -0.94893,8.91998 -1e-5,1.9295 0.56935,2.89425 1.70808,2.89425 1.01218,0 1.86622,-0.5061 2.56212,-1.5183 0.7275,-1.01219 1.2336,-2.35651 1.51829,-4.03297 l 2.56213,-13.90188 c -0.66427,-0.56934 -1.58158,-0.85402 -2.75191,-0.85404"
         style="font-size:47.44670868px;line-height:100%;fill:#333333;font-family:Sansita One;-inkscape-font-specification:Sansita One"
         id="path3049" />
      <path
         inkscape:connector-curvature="0"
         d="m 289.32996,288.31001 c 1.07545,-1.51828 2.41977,-2.78352 4.03297,-3.79574 1.64481,-1.01217 3.4636,-1.51827 5.45637,-1.51829 1.99275,2e-5 3.46359,0.31633 4.41254,0.94893 l 9.29956,-0.94893 -3.22638,18.21953 c -1.10711,6.19971 -2.83101,10.51735 -5.17169,12.95295 -2.24583,2.30907 -5.55128,3.4636 -9.91636,3.46361 -3.32128,-10e-6 -5.93084,-0.52192 -7.82871,-1.56574 -1.89787,-1.04383 -2.8468,-2.4356 -2.8468,-4.17531 0,-1.29688 0.49028,-2.32489 1.47085,-3.08404 0.98056,-0.72751 2.22999,-1.09127 3.74829,-1.09127 1.3285,0 2.49885,0.3005 3.51105,0.90149 0.60099,0.31631 1.04382,0.69588 1.32851,1.13872 -0.72752,0.63262 -1.09128,1.47084 -1.09127,2.51467 -1e-5,1.36014 0.63261,2.04021 1.89787,2.04021 2.11927,0 3.7799,-2.49886 4.9819,-7.49658 0.34793,-1.36013 0.66424,-2.72027 0.94893,-4.08041 -1.42341,1.73971 -3.7483,2.60957 -6.97466,2.60956 -2.24582,1e-5 -4.01716,-0.53772 -5.31403,-1.61318 -1.29688,-1.07546 -1.94532,-2.87843 -1.94532,-5.40893 0,-1.58154 0.26887,-3.25799 0.8066,-5.02935 0.53772,-1.80296 1.34432,-3.46359 2.41978,-4.9819 m 6.16807,10.15359 c -1e-5,2.15093 0.55353,3.22638 1.66064,3.22638 0.75913,0 1.50246,-0.4112 2.22999,-1.23362 0.56935,-0.66424 0.96473,-1.48665 1.18617,-2.46722 l 2.41978,-12.19381 c -0.15817,-0.0316 -0.31633,-0.079 -0.47447,-0.14234 -0.31633,-0.1265 -0.68008,-0.18976 -1.09127,-0.18979 -1.92951,3e-5 -3.46362,1.58158 -4.60233,4.74467 -0.88568,2.46725 -1.32852,5.21916 -1.32851,8.25573"
         style="font-size:47.44670868px;line-height:100%;fill:#333333;font-family:Sansita One;-inkscape-font-specification:Sansita One"
         id="path3051" />
      <path
         inkscape:connector-curvature="0"
         d="m 333.62665,300.12424 c 0.79076,0.53773 1.18615,1.40759 1.18617,2.60957 -2e-5,1.17035 -0.30052,2.1351 -0.90149,2.89425 -0.60101,0.75914 -1.39179,1.39177 -2.37233,1.89786 -2.02441,1.04383 -4.12788,1.56574 -6.31042,1.56574 -2.18255,0 -3.92226,-0.23723 -5.21913,-0.7117 -1.26525,-0.47446 -2.3249,-1.15453 -3.17893,-2.0402 -1.67645,-1.67645 -2.51468,-4.04878 -2.51468,-7.11701 0,-4.77629 1.29688,-8.61947 3.89063,-11.52955 2.78353,-3.13146 6.59508,-4.6972 11.43466,-4.69722 3.00494,2e-5 5.25075,0.63264 6.73743,1.89786 1.10707,0.94896 1.66061,2.19839 1.66064,3.74829 -3e-5,5.5671 -4.80796,8.35064 -14.4238,8.35062 -0.12654,0.82242 -0.1898,1.58157 -0.18979,2.27745 -1e-5,1.45504 0.3163,2.46723 0.94893,3.03659 0.66425,0.53773 1.59736,0.80659 2.79936,0.80659 1.20197,0 2.43558,-0.26886 3.70084,-0.80659 1.29686,-0.56936 2.21416,-1.29687 2.75191,-2.18255 m -9.67913,-5.17169 c 2.2458,1e-5 4.01714,-0.69588 5.31404,-2.08766 1.29685,-1.32849 1.94529,-3.05239 1.94531,-5.17169 -2e-5,-0.7275 -0.14236,-1.28104 -0.42702,-1.66064 -0.25307,-0.41118 -0.64846,-0.61678 -1.18617,-0.6168 -0.53774,2e-5 -1.04384,0.11073 -1.51829,0.33212 -0.44285,0.18981 -0.9015,0.63265 -1.37596,1.32851 -1.17036,1.58158 -2.08766,4.20696 -2.75191,7.87616"
         style="font-size:47.44670868px;line-height:100%;fill:#333333;font-family:Sansita One;-inkscape-font-specification:Sansita One"
         id="path3053" />
      <path
         inkscape:connector-curvature="0"
         d="m 340.37594,303.39806 c 0,-0.85404 0.22141,-2.35651 0.66425,-4.50744 l 2.51468,-12.81061 -2.79936,0 0.18979,-1.4234 c 3.79573,-1.1387 7.5282,-3.09983 11.19742,-5.88339 l 2.27744,0 -1.13872,5.17169 3.70085,0 -0.42703,2.1351 -3.65339,0 -2.41978,12.81061 c -0.41122,1.96114 -0.61682,3.27383 -0.61681,3.93808 -10e-6,1.5183 0.66424,2.4356 1.99276,2.75191 -0.31632,1.07546 -1.04384,1.9295 -2.18255,2.56212 -1.13873,0.63262 -2.51468,0.94893 -4.12786,0.94893 -1.61319,0 -2.87844,-0.50609 -3.79574,-1.51829 -0.9173,-1.01219 -1.37595,-2.40396 -1.37595,-4.17531"
         style="font-size:47.44670868px;line-height:100%;fill:#333333;font-family:Sansita One;-inkscape-font-specification:Sansita One"
         id="path3055" />
      <path
         inkscape:connector-curvature="0"
         d="m 370.94719,291.48894 c 0.44282,-1.17034 0.66423,-2.26161 0.66425,-3.27383 -2e-5,-1.86621 -0.75916,-2.79933 -2.27744,-2.79935 -0.79079,2e-5 -1.51831,0.36378 -2.18255,1.09127 -0.63263,0.69591 -0.94895,1.48669 -0.94894,2.37234 -1e-5,0.63264 0.25304,1.202 0.75915,1.70808 0.72751,0.6959 2.02438,1.6132 3.89063,2.75191 1.86622,1.13873 3.14728,2.18256 3.84319,3.13148 0.72749,0.91731 1.09125,2.0244 1.09127,3.32127 -2e-5,1.26525 -0.31633,2.48305 -0.94893,3.6534 -0.60101,1.17035 -1.45505,2.16673 -2.56213,2.98914 -2.37235,1.77134 -5.45638,2.65701 -9.25211,2.65701 -2.05602,0 -3.87481,-0.53772 -5.45637,-1.61318 -1.58155,-1.04383 -2.37233,-2.18255 -2.37233,-3.41617 0,-1.23361 0.44283,-2.21417 1.32851,-2.94169 0.9173,-0.72751 2.0402,-1.09127 3.36871,-1.09128 1.3285,1e-5 2.40396,0.25306 3.22638,0.75915 -0.41121,1.04383 -0.61682,1.91369 -0.61681,2.60957 -10e-6,2.08766 0.88567,3.13148 2.65702,3.13148 0.75913,0 1.39176,-0.23723 1.89787,-0.7117 0.50608,-0.47446 0.75913,-1.1229 0.75914,-1.94531 -10e-6,-1.61319 -1.36015,-3.27382 -4.08041,-4.98191 -2.21419,-1.45502 -3.57433,-2.46721 -4.08042,-3.03659 -0.85405,-1.01218 -1.28107,-2.1509 -1.28106,-3.41616 -10e-6,-1.26523 0.30049,-2.49884 0.90148,-3.70084 0.60099,-1.20197 1.45503,-2.22998 2.56213,-3.08404 2.30906,-1.77132 5.47217,-2.65699 9.48934,-2.65701 2.05601,2e-5 3.68501,0.41122 4.88701,1.23361 1.23359,0.82243 1.8504,1.92952 1.85042,3.32127 -2e-5,1.39179 -0.42704,2.48306 -1.28106,3.27382 -0.82243,0.7908 -1.99278,1.18619 -3.51106,1.18617 -1.04384,2e-5 -1.8188,-0.17396 -2.32488,-0.52191"
         style="font-size:47.44670868px;line-height:100%;fill:#333333;font-family:Sansita One;-inkscape-font-specification:Sansita One"
         id="path3057" />
    </g>
  </g>
</svg>
